<svg xmlns="http://www.w3.org/2000/svg" xmlns:xlink="http://www.w3.org/1999/xlink" width="500" zoomAndPan="magnify" viewBox="0 0 375 374.999991" height="500" preserveAspectRatio="xMidYMid meet" version="1.0"><defs><clipPath id="a905a39b44"><path d="M 0 8.777344 L 375 8.777344 L 375 363 L 0 363 Z M 0 8.777344 " clip-rule="nonzero"/></clipPath></defs><path fill="#ffffff" d="M 306.824219 24.554688 C 295.089844 57.867188 292.585938 93.324219 290.480469 120.921875 C 290.324219 123.847656 290.179688 126.816406 290.039062 129.800781 C 296.671875 138.980469 308.167969 153.773438 308.402344 153.453125 C 347.839844 139.140625 368.304688 114.769531 368.304688 114.769531 C 357.710938 90.113281 340.105469 62.355469 320.222656 38.582031 C 312.472656 29.300781 309.328125 25.453125 306.824219 24.554688 " fill-opacity="1" fill-rule="nonzero"/><path fill="#ffffff" d="M 68.195312 24.550781 C 65.695312 25.453125 62.550781 29.300781 54.800781 38.582031 C 34.914062 62.351562 17.3125 90.113281 6.71875 114.765625 C 6.71875 114.765625 27.183594 139.140625 66.613281 153.453125 C 66.855469 153.773438 78.351562 138.980469 84.980469 129.800781 C 84.839844 126.8125 84.699219 123.847656 84.539062 120.921875 C 82.433594 93.320312 79.929688 57.863281 68.195312 24.550781 " fill-opacity="1" fill-rule="nonzero"/><path fill="#ffffff" d="M 305.644531 24.308594 C 292.207031 24.171875 256.0625 17.976562 242.621094 10.402344 C 242.621094 10.402344 241.960938 10.007812 241.980469 9.96875 C 241.941406 9.984375 241.382812 10.339844 241.339844 10.359375 C 211.804688 31.265625 166.964844 31.824219 136.585938 12.324219 C 135.605469 11.683594 134.621094 11.042969 133.679688 10.359375 C 133.640625 10.339844 133.160156 9.96875 133.160156 9.96875 L 132.402344 10.402344 C 118.960938 17.976562 82.816406 24.171875 69.378906 24.308594 C 69.277344 24.308594 69.179688 24.332031 69.078125 24.332031 C 83.476562 57.222656 87.121094 93.160156 89.964844 120.558594 C 97.753906 218.914062 86.058594 315.605469 75.445312 349.777344 L 75.945312 349.9375 C 142.792969 362.527344 233.910156 362.207031 299.074219 349.9375 L 299.574219 349.777344 C 288.964844 315.605469 277.265625 218.914062 285.058594 120.558594 C 287.902344 93.160156 291.5625 57.222656 305.941406 24.332031 C 305.84375 24.332031 305.746094 24.308594 305.644531 24.308594 " fill-opacity="1" fill-rule="nonzero"/><g clip-path="url(#a905a39b44)"><path fill="#1e1b1b" d="M 308.40625 153.453125 C 308.167969 153.773438 296.671875 138.980469 290.042969 129.800781 C 290.183594 126.8125 290.324219 123.847656 290.480469 120.921875 C 292.585938 93.320312 295.089844 57.863281 306.824219 24.550781 C 309.328125 25.453125 312.472656 29.300781 320.222656 38.582031 C 340.105469 62.355469 357.710938 90.113281 368.304688 114.765625 C 368.304688 114.765625 347.839844 139.140625 308.40625 153.453125 Z M 285.054688 120.5625 C 277.265625 218.914062 288.960938 315.605469 299.574219 349.777344 L 299.074219 349.9375 C 233.910156 362.207031 142.792969 362.527344 75.945312 349.9375 L 75.445312 349.777344 C 86.058594 315.605469 97.753906 218.914062 89.964844 120.5625 C 87.121094 93.160156 83.476562 57.222656 69.078125 24.332031 C 69.179688 24.332031 69.277344 24.3125 69.378906 24.3125 C 82.816406 24.171875 118.960938 17.976562 132.398438 10.402344 L 133.160156 9.96875 C 133.160156 9.96875 133.640625 10.339844 133.679688 10.363281 C 134.621094 11.042969 135.605469 11.6875 136.585938 12.324219 C 166.964844 31.828125 211.800781 31.269531 241.339844 10.363281 C 241.382812 10.339844 241.9375 9.988281 241.980469 9.96875 C 241.957031 10.007812 242.621094 10.402344 242.621094 10.402344 C 256.058594 17.976562 292.207031 24.171875 305.644531 24.3125 C 305.742188 24.3125 305.84375 24.332031 305.941406 24.332031 C 291.5625 57.222656 287.898438 93.160156 285.054688 120.5625 Z M 66.613281 153.453125 C 27.183594 139.140625 6.71875 114.765625 6.71875 114.765625 C 17.3125 90.113281 34.914062 62.355469 54.800781 38.582031 C 62.546875 29.300781 65.695312 25.453125 68.195312 24.550781 C 79.929688 57.863281 82.433594 93.320312 84.539062 120.921875 C 84.699219 123.847656 84.839844 126.8125 84.976562 129.800781 C 78.351562 138.980469 66.855469 153.773438 66.613281 153.453125 Z M 306.804688 22.367188 C 286.660156 18.640625 254.636719 11.746094 242.941406 8.976562 C 242.710938 8.929688 242.300781 8.796875 242.300781 8.796875 C 242.28125 8.796875 242.261719 8.816406 242.242188 8.816406 C 241.523438 9.226562 240.835938 9.519531 240.835938 9.519531 C 207.476562 25.652344 171.046875 26.257812 137.226562 10.941406 C 136.433594 10.585938 133.578125 9.261719 132.820312 8.839844 C 132.820312 8.839844 132.820312 8.816406 132.800781 8.816406 L 132.78125 8.816406 C 132.761719 8.816406 132.742188 8.796875 132.71875 8.796875 L 132.601562 8.855469 C 132.4375 8.898438 132.261719 8.9375 132.078125 8.976562 C 120.386719 11.746094 88.363281 18.640625 68.214844 22.367188 C 61.847656 24.234375 57.722656 31.085938 52.574219 36.617188 C 18.972656 72.417969 0.0078125 116.011719 0.0078125 116.011719 C 12.203125 132.527344 43.34375 150.746094 67.355469 157.363281 C 67.394531 157.382812 67.457031 157.421875 67.496094 157.441406 C 68.539062 156.035156 79.089844 142.988281 85.179688 134.589844 C 88.28125 212.101562 83.253906 309.792969 74.5625 349.597656 C 74.421875 350.238281 74.285156 350.878906 74.144531 351.503906 C 74.304688 351.5625 74.707031 351.621094 74.867188 351.683594 C 75.066406 351.742188 75.246094 351.785156 75.347656 351.804688 C 75.445312 351.820312 75.527344 351.84375 75.625 351.863281 C 134.679688 366.515625 240.339844 366.515625 299.394531 351.863281 C 299.496094 351.84375 299.574219 351.820312 299.675781 351.804688 C 299.777344 351.785156 299.953125 351.742188 300.15625 351.683594 C 300.316406 351.621094 300.714844 351.5625 300.875 351.503906 C 300.738281 350.878906 300.59375 350.238281 300.457031 349.597656 C 291.765625 309.792969 286.738281 212.101562 289.84375 134.589844 C 295.929688 142.988281 306.484375 156.035156 307.523438 157.441406 C 307.5625 157.421875 307.625 157.382812 307.667969 157.363281 C 331.675781 150.746094 362.816406 132.527344 375.011719 116.011719 C 375.011719 116.011719 356.046875 72.417969 322.441406 36.617188 C 317.300781 31.085938 313.171875 24.234375 306.804688 22.367188 " fill-opacity="1" fill-rule="nonzero"/></g></svg>