<svg xmlns="http://www.w3.org/2000/svg" width="200" height="200">
    <path d="M60,90 C80,70 120,70 140,90 C160,110 140,150 120,160 C100,170 80,150 60,130 C50,120 40,110 50,100 C55,95 58,90 60,90 Z" fill="#7C0A02" />
    <path d="M80,110 C90,100 110,100 120,110 C130,120 120,130 110,125 C100,120 90,125 85,130 C80,135 70,130 75,120 C80,115 75,115 80,110 Z" fill="#841617" opacity="0.9"/>
    <path d="M100,130 C105,120 130,115 140,125 C150,135 130,145 120,140 C110,135 100,140 95,150 C90,155 80,150 85,140 C90,130 95,125 100,130 Z" fill="#841617" opacity="0.9"/>
    <path d="M45,105 C55,95 70,95 80,105 C85,110 80,115 75,110 C70,105 60,110 50,115 C45,120 40,110 45,105 Z" fill="#841617" opacity="0.9"/>
    <path d="M130,105 C135,100 145,100 150,105 C155,110 150,115 145,110 C140,105 130,110 125,115 C120,120 115,110 120,105 C125,100 120,95 130,105 Z" fill="#A51C30" opacity="0.5"/>
    <path d="M95,150 C100,140 110,135 115,145 C120,155 110,160 105,155 C100,150 95,155 95,150 Z" fill="#841617" opacity="0.8"/>
    <path d="M75,135 C85,125 100,120 110,130 C120,140 110,145 100,140 C90,135 80,140 75,145 C70,150 60,145 65,135 C70,130 65,125 75,135 Z" fill="#A50021" opacity="0.6"/>
</svg>
